<svg width="174" height="44" viewBox="0 0 174 44" fill="none" xmlns="http://www.w3.org/2000/svg">
<path d="M16.4766 0H19.9219V4.40625H22.5703C27.7578 4.40625 31.3594 5.42188 33.375 7.45312C35.3906 9.46875 36.3984 11.8906 36.3984 14.7188C36.3984 17.2969 35.5078 19.5938 33.7266 21.6094C31.9609 23.6094 28.6016 24.6094 23.6484 24.6094H19.9219V34.4766H16.4766V24.6094H12.7734C10.1484 24.6094 7.97656 24.3594 6.25781 23.8594C4.53906 23.3438 3.0625 22.2578 1.82812 20.6016C0.609375 18.9297 0 16.9688 0 14.7188C0 11.9062 1 9.48438 3 7.45312C5 5.42188 8.61719 4.40625 13.8516 4.40625H16.4766V0ZM19.9219 7.73438V21.2812H23.5547L25.4062 21.3047C27.8125 21.3047 29.6484 20.6797 30.9141 19.4297C32.1953 18.1641 32.8359 16.5781 32.8359 14.6719C32.8359 12.5625 32.0859 10.8828 30.5859 9.63281C29.0859 8.36719 26.8203 7.73438 23.7891 7.73438H19.9219ZM16.4766 7.73438H12.6094C9.78125 7.73438 7.5625 8.33594 5.95312 9.53906C4.35938 10.7266 3.5625 12.4297 3.5625 14.6484C3.5625 16.5547 4.19531 18.1406 5.46094 19.4062C6.72656 20.6719 8.61719 21.3047 11.1328 21.3047L12.8672 21.2812H16.4766V7.73438Z" fill="white"/>
<path d="M56.5622 26.0156L59.3278 27.4688C58.4216 29.25 57.3747 30.6875 56.1872 31.7812C54.9997 32.875 53.6637 33.7109 52.1794 34.2891C50.695 34.8516 49.0153 35.1328 47.1403 35.1328C42.9841 35.1328 39.7341 33.7734 37.3903 31.0547C35.0466 28.3203 33.8747 25.2344 33.8747 21.7969C33.8747 18.5625 34.8669 15.6797 36.8512 13.1484C39.3669 9.92969 42.7341 8.32031 46.9528 8.32031C51.2966 8.32031 54.7653 9.96875 57.3591 13.2656C59.2028 15.5938 60.1403 18.5 60.1716 21.9844H37.2497C37.3122 24.9531 38.2575 27.3906 40.0856 29.2969C41.9137 31.1875 44.1716 32.1328 46.8591 32.1328C48.1559 32.1328 49.4137 31.9062 50.6325 31.4531C51.8669 31 52.9137 30.3984 53.7731 29.6484C54.6325 28.8984 55.5622 27.6875 56.5622 26.0156ZM56.5622 19.1484C56.1247 17.3984 55.4841 16 54.6403 14.9531C53.8122 13.9062 52.7106 13.0625 51.3356 12.4219C49.9606 11.7812 48.5153 11.4609 46.9997 11.4609C44.4997 11.4609 42.3512 12.2656 40.5544 13.875C39.2419 15.0469 38.2497 16.8047 37.5778 19.1484H56.5622Z" fill="white"/>
<path d="M66.0384 34.4766H58.6322V8.97656H65.9212C68.7025 8.97656 70.7025 9.61719 71.9212 10.8984C73.1556 12.1797 73.7728 13.6797 73.7728 15.3984C73.7728 17.9922 72.6322 19.75 70.3509 20.6719C73.6634 21.8438 75.3197 24.1016 75.3197 27.4453C75.3197 32.1328 72.2259 34.4766 66.0384 34.4766ZM61.9369 11.8125V19.7812H64.0697C66.0072 19.7812 67.2728 19.7031 67.8666 19.5469C68.4603 19.3906 69.015 19.0078 69.5306 18.3984C70.0619 17.7734 70.3275 16.9531 70.3275 15.9375C70.3275 14.875 70.0541 13.9844 69.5072 13.2656C68.9603 12.5469 68.3822 12.125 67.7728 12C67.1791 11.875 65.9447 11.8125 64.0697 11.8125H61.9369ZM61.9369 22.7812V31.7109H65.4525C67.1087 31.7109 68.2884 31.6094 68.9916 31.4062C69.7103 31.1875 70.3197 30.7266 70.8197 30.0234C71.3353 29.3203 71.5931 28.4297 71.5931 27.3516C71.5931 25.9609 71.1556 24.8516 70.2806 24.0234C69.4056 23.1953 68.2494 22.7812 66.8119 22.7812H61.9369Z" fill="white"/>
<path d="M72.3741 34.4766L77.2725 0H77.835L91.8506 28.2891L105.726 0H106.288L111.233 34.4766H107.835L104.46 9.82031L92.2725 34.4766H91.4053L79.0537 9.63281L75.7022 34.4766H72.3741Z" fill="white"/>
<path d="M135.241 8.97656V34.4766H132.007V30.0938C130.632 31.7656 129.085 33.0234 127.366 33.8672C125.663 34.7109 123.796 35.1328 121.764 35.1328C118.155 35.1328 115.069 33.8281 112.507 31.2188C109.96 28.5938 108.686 25.4062 108.686 21.6562C108.686 17.9844 109.975 14.8438 112.553 12.2344C115.132 9.625 118.233 8.32031 121.858 8.32031C123.952 8.32031 125.842 8.76562 127.53 9.65625C129.233 10.5469 130.725 11.8828 132.007 13.6641V8.97656H135.241ZM122.116 11.4844C120.288 11.4844 118.6 11.9375 117.053 12.8438C115.507 13.7344 114.272 14.9922 113.35 16.6172C112.444 18.2422 111.991 19.9609 111.991 21.7734C111.991 23.5703 112.452 25.2891 113.374 26.9297C114.296 28.5703 115.53 29.8516 117.077 30.7734C118.639 31.6797 120.311 32.1328 122.092 32.1328C123.889 32.1328 125.592 31.6797 127.202 30.7734C128.811 29.8672 130.046 28.6406 130.905 27.0938C131.78 25.5469 132.217 23.8047 132.217 21.8672C132.217 18.9141 131.241 16.4453 129.288 14.4609C127.35 12.4766 124.96 11.4844 122.116 11.4844Z" fill="white"/>
<path d="M135.014 8.97656H138.272V13.6641C139.569 11.8828 141.061 10.5469 142.748 9.65625C144.436 8.76562 146.319 8.32031 148.397 8.32031C152.022 8.32031 155.123 9.625 157.702 12.2344C160.28 14.8438 161.569 17.9844 161.569 21.6562C161.569 25.4062 160.288 28.5938 157.725 31.2188C155.178 33.8281 152.1 35.1328 148.491 35.1328C146.459 35.1328 144.592 34.7109 142.889 33.8672C141.186 33.0234 139.647 31.7656 138.272 30.0938V43.8047H135.014V8.97656ZM148.139 11.4844C145.295 11.4844 142.897 12.4766 140.944 14.4609C139.006 16.4453 138.038 18.9141 138.038 21.8672C138.038 23.8047 138.467 25.5469 139.327 27.0938C140.202 28.6406 141.444 29.8672 143.053 30.7734C144.678 31.6797 146.389 32.1328 148.186 32.1328C149.952 32.1328 151.608 31.6797 153.155 30.7734C154.717 29.8516 155.959 28.5703 156.881 26.9297C157.803 25.2891 158.264 23.5703 158.264 21.7734C158.264 19.9609 157.803 18.2422 156.881 16.6172C155.975 14.9922 154.748 13.7344 153.202 12.8438C151.655 11.9375 149.967 11.4844 148.139 11.4844Z" fill="white"/>
<path d="M157.193 8.97656H173.975V11.8125H167.225V34.4766H163.92V11.8125H157.193V8.97656Z" fill="white"/>
</svg>
